<svg width="24" height="24" viewBox="0 0 24 24" fill="none" xmlns="http://www.w3.org/2000/svg">
  <path d="M22.28 9.53c-.3-.94-.97-1.74-1.86-2.22-.5-.27-1.05-.42-1.62-.43h-.25c-.43-.84-1.16-1.5-2.04-1.86-.94-.38-1.99-.38-2.93 0-.88.36-1.61 1.02-2.04 1.86h-.25c-.57.01-1.12.16-1.62.43-.89.48-1.56 1.28-1.86 2.22-.3.94-.2 1.97.28 2.83-.28.5-.42 1.05-.43 1.62.01.94.38 1.85 1.02 2.54.64.69 1.5 1.13 2.44 1.23.31.56.76 1.05 1.3 1.4.64.42 1.39.64 2.15.64h.08c.85-.01 1.66-.33 2.31-.88.65.55 1.46.87 2.31.88h.08c.76 0 1.51-.22 2.15-.64.54-.35.99-.84 1.3-1.4.94-.1 1.8-.54 2.44-1.23.64-.69 1.01-1.6 1.02-2.54-.01-.57-.16-1.12-.43-1.62.48-.86.58-1.89.28-2.83zm-4.06 7.87c-.26.17-.56.28-.88.3l-.16-.08-3.08-1.78a.62.62 0 01-.31-.54v-4.4s.03-.07.05-.09a.1.1 0 01.1 0l3.1 1.79c.42.24.76.62.96 1.06.2.44.25.94.15 1.42-.1.39-.29.76-.56 1.06a2.1 2.1 0 01-.37.26zm-10.95 0a2.1 2.1 0 01-.37-.26c-.27-.3-.47-.67-.56-1.06-.1-.48-.05-.98.15-1.42.2-.44.54-.82.96-1.06l3.1-1.79a.1.1 0 01.1 0c.02.02.05.06.05.09v4.4c0 .22-.12.43-.31.54l-3.08 1.78-.16.08c-.32-.02-.62-.13-.88-.3zM4.24 9.88c.26-.47.69-.84 1.2-.99v4.3c0 .22.12.43.31.54l3.08 1.78s.06.07.06.12-.03.1-.06.12l-3.1 1.79c-.42.24-.92.32-1.4.24-.48-.09-.91-.34-1.22-.7-.3-.37-.47-.82-.47-1.3 0-.6.19-1.18.56-1.67l.09-.07zm13.52 2.32l-3.1-1.79s-.06-.07-.06-.12c0-.05.03-.1.06-.12l3.08-1.78.16-.08.53.18c.53.12 1.01.4 1.38.8.42.44.66 1.01.67 1.6 0 .47-.16.93-.46 1.3-.3.36-.74.61-1.22.7-.34.06-.7.01-1.02-.1l-.03-.01zm-4 .17s-.06-.07-.06-.12c0-.05.03-.1.06-.12l3.08-1.78.16-.08h.07c.44.01.87.16 1.22.42.41.3.69.74.8 1.22.09.39.07.8-.06 1.19-.13.38-.36.72-.67.98l-.09.03s-.1-.03-.14-.06l-3.08-1.78a.62.62 0 01-.31-.54V12.37h.02zm-3.52 3.3l-3.1-1.79-.09-.03c-.31-.26-.54-.6-.67-.98-.13-.39-.15-.8-.06-1.19.11-.48.39-.92.8-1.22.35-.26.77-.41 1.22-.42h.07l.16.08 3.08 1.78s.06.07.06.12v3.56c0 .06-.03.1-.06.12s-.07.03-.1 0l-1.31-.76v.73zm.92 2.1l-.16-.08-3.08-1.78a.62.62 0 01-.31-.54v-3.56c0-.06.03-.1.06-.12a.1.1 0 01.1 0l3.08 1.78.14.06.09.04c.27.31.45.69.53 1.1.07.4.04.82-.1 1.2-.16.47-.47.87-.88 1.15-.31.22-.67.36-1.05.37v.38zm6.92-.49l-.16.08c-.38-.01-.74-.15-1.05-.37-.41-.28-.72-.68-.88-1.15-.14-.38-.17-.8-.1-1.2.08-.41.26-.79.53-1.1l.09-.04.14-.06 3.08-1.78a.1.1 0 01.1 0c.03.02.06.06.06.12v3.56c0 .22-.12.43-.31.54l-3.08 1.78-.16.08v-.47zm.92-4.91l-2.6-1.5 2.6-1.5 2.6 1.5v3l-2.6 1.5-2.6-1.5v-1z" fill="black"/>
</svg>
